<mxfile host="app.diagrams.net" agent="Mozilla/5.0 (Macintosh; Intel Mac OS X 10_15_7) AppleWebKit/537.36 (KHTML, like Gecko) Chrome/131.0.0.0 Safari/537.36" version="25.0.3">
  <diagram name="第 1 页" id="xs-JC2N8WfaUL-g9F7KY">
    <mxGraphModel dx="2074" dy="1045" grid="1" gridSize="10" guides="1" tooltips="1" connect="1" arrows="1" fold="1" page="1" pageScale="1" pageWidth="827" pageHeight="1169" math="0" shadow="0">
      <root>
        <mxCell id="0" />
        <mxCell id="1" parent="0" />
        <mxCell id="TbwZooSHutACKmplQoPR-1" value="" style="endArrow=none;html=1;rounded=0;sketch=1;hachureGap=4;jiggle=2;curveFitting=1;fontFamily=Architects Daughter;fontSource=https%3A%2F%2Ffonts.googleapis.com%2Fcss%3Ffamily%3DArchitects%2BDaughter;" edge="1" parent="1">
          <mxGeometry width="50" height="50" relative="1" as="geometry">
            <mxPoint x="80" y="120" as="sourcePoint" />
            <mxPoint x="760" y="120" as="targetPoint" />
          </mxGeometry>
        </mxCell>
        <mxCell id="TbwZooSHutACKmplQoPR-2" value="" style="endArrow=none;html=1;rounded=0;sketch=1;hachureGap=4;jiggle=2;curveFitting=1;fontFamily=Architects Daughter;fontSource=https%3A%2F%2Ffonts.googleapis.com%2Fcss%3Ffamily%3DArchitects%2BDaughter;" edge="1" parent="1">
          <mxGeometry width="50" height="50" relative="1" as="geometry">
            <mxPoint x="80" y="120" as="sourcePoint" />
            <mxPoint x="80" y="1040" as="targetPoint" />
          </mxGeometry>
        </mxCell>
        <mxCell id="TbwZooSHutACKmplQoPR-3" value="" style="endArrow=none;html=1;rounded=0;sketch=1;hachureGap=4;jiggle=2;curveFitting=1;fontFamily=Architects Daughter;fontSource=https%3A%2F%2Ffonts.googleapis.com%2Fcss%3Ffamily%3DArchitects%2BDaughter;" edge="1" parent="1">
          <mxGeometry width="50" height="50" relative="1" as="geometry">
            <mxPoint x="760" y="125" as="sourcePoint" />
            <mxPoint x="760" y="1045" as="targetPoint" />
          </mxGeometry>
        </mxCell>
        <mxCell id="TbwZooSHutACKmplQoPR-4" value="" style="endArrow=none;html=1;rounded=0;sketch=1;hachureGap=4;jiggle=2;curveFitting=1;fontFamily=Architects Daughter;fontSource=https%3A%2F%2Ffonts.googleapis.com%2Fcss%3Ffamily%3DArchitects%2BDaughter;" edge="1" parent="1">
          <mxGeometry width="50" height="50" relative="1" as="geometry">
            <mxPoint x="80" y="1040" as="sourcePoint" />
            <mxPoint x="760" y="1040" as="targetPoint" />
          </mxGeometry>
        </mxCell>
        <mxCell id="TbwZooSHutACKmplQoPR-5" value="" style="rounded=0;whiteSpace=wrap;html=1;sketch=1;hachureGap=4;jiggle=2;curveFitting=1;fontFamily=Architects Daughter;fontSource=https%3A%2F%2Ffonts.googleapis.com%2Fcss%3Ffamily%3DArchitects%2BDaughter;" vertex="1" parent="1">
          <mxGeometry x="280" y="130" width="300" height="80" as="geometry" />
        </mxCell>
        <mxCell id="TbwZooSHutACKmplQoPR-6" value="用户&lt;br&gt;访问" style="text;html=1;align=center;verticalAlign=middle;resizable=0;points=[];autosize=1;strokeColor=none;fillColor=none;fontFamily=Architects Daughter;fontSource=https%3A%2F%2Ffonts.googleapis.com%2Fcss%3Ffamily%3DArchitects%2BDaughter;" vertex="1" parent="1">
          <mxGeometry x="300" y="150" width="50" height="40" as="geometry" />
        </mxCell>
        <mxCell id="TbwZooSHutACKmplQoPR-7" value="" style="image;html=1;image=img/lib/clip_art/telecommunication/iPhone_128x128.png;sketch=1;hachureGap=4;jiggle=2;curveFitting=1;fontFamily=Architects Daughter;fontSource=https%3A%2F%2Ffonts.googleapis.com%2Fcss%3Ffamily%3DArchitects%2BDaughter;" vertex="1" parent="1">
          <mxGeometry x="370" y="145" width="66" height="50" as="geometry" />
        </mxCell>
        <mxCell id="TbwZooSHutACKmplQoPR-9" value="" style="fontColor=#0066CC;verticalAlign=top;verticalLabelPosition=bottom;labelPosition=center;align=center;html=1;outlineConnect=0;fillColor=#CCCCCC;strokeColor=#6881B3;gradientColor=none;gradientDirection=north;strokeWidth=2;shape=mxgraph.networks.virtual_pc;hachureGap=4;fontFamily=Architects Daughter;fontSource=https%3A%2F%2Ffonts.googleapis.com%2Fcss%3Ffamily%3DArchitects%2BDaughter;" vertex="1" parent="1">
          <mxGeometry x="470" y="145" width="80" height="50" as="geometry" />
        </mxCell>
        <mxCell id="TbwZooSHutACKmplQoPR-10" value="" style="image;aspect=fixed;html=1;points=[];align=center;fontSize=12;image=img/lib/azure2/networking/Application_Gateway_Containers.svg;hachureGap=4;fontFamily=Architects Daughter;fontSource=https%3A%2F%2Ffonts.googleapis.com%2Fcss%3Ffamily%3DArchitects%2BDaughter;" vertex="1" parent="1">
          <mxGeometry x="280" y="260" width="52.93" height="50" as="geometry" />
        </mxCell>
        <mxCell id="TbwZooSHutACKmplQoPR-11" value="" style="image;aspect=fixed;html=1;points=[];align=center;fontSize=12;image=img/lib/azure2/networking/Application_Gateway_Containers.svg;hachureGap=4;fontFamily=Architects Daughter;fontSource=https%3A%2F%2Ffonts.googleapis.com%2Fcss%3Ffamily%3DArchitects%2BDaughter;" vertex="1" parent="1">
          <mxGeometry x="403.53" y="260" width="52.93" height="50" as="geometry" />
        </mxCell>
        <mxCell id="TbwZooSHutACKmplQoPR-12" value="" style="image;aspect=fixed;html=1;points=[];align=center;fontSize=12;image=img/lib/azure2/networking/Application_Gateway_Containers.svg;hachureGap=4;fontFamily=Architects Daughter;fontSource=https%3A%2F%2Ffonts.googleapis.com%2Fcss%3Ffamily%3DArchitects%2BDaughter;fontStyle=1" vertex="1" parent="1">
          <mxGeometry x="527.07" y="260" width="52.93" height="50" as="geometry" />
        </mxCell>
        <mxCell id="TbwZooSHutACKmplQoPR-13" value="" style="endArrow=none;dashed=1;html=1;dashPattern=1 3;strokeWidth=2;rounded=0;hachureGap=4;fontFamily=Architects Daughter;fontSource=https%3A%2F%2Ffonts.googleapis.com%2Fcss%3Ffamily%3DArchitects%2BDaughter;flowAnimation=1;" edge="1" parent="1">
          <mxGeometry width="50" height="50" relative="1" as="geometry">
            <mxPoint x="150" y="240" as="sourcePoint" />
            <mxPoint x="720" y="240" as="targetPoint" />
          </mxGeometry>
        </mxCell>
        <mxCell id="TbwZooSHutACKmplQoPR-14" value="" style="endArrow=none;dashed=1;html=1;dashPattern=1 3;strokeWidth=2;rounded=0;hachureGap=4;fontFamily=Architects Daughter;fontSource=https%3A%2F%2Ffonts.googleapis.com%2Fcss%3Ffamily%3DArchitects%2BDaughter;flowAnimation=1;" edge="1" parent="1">
          <mxGeometry width="50" height="50" relative="1" as="geometry">
            <mxPoint x="150" y="340" as="sourcePoint" />
            <mxPoint x="720" y="340" as="targetPoint" />
          </mxGeometry>
        </mxCell>
        <mxCell id="TbwZooSHutACKmplQoPR-15" value="反向代理" style="text;html=1;align=center;verticalAlign=middle;resizable=0;points=[];autosize=1;strokeColor=none;fillColor=none;fontFamily=Architects Daughter;fontSource=https%3A%2F%2Ffonts.googleapis.com%2Fcss%3Ffamily%3DArchitects%2BDaughter;" vertex="1" parent="1">
          <mxGeometry x="170" y="280" width="70" height="30" as="geometry" />
        </mxCell>
        <mxCell id="TbwZooSHutACKmplQoPR-16" value="&lt;font face=&quot;Helvetica&quot;&gt;nginx&lt;/font&gt;" style="text;html=1;align=center;verticalAlign=middle;resizable=0;points=[];autosize=1;strokeColor=none;fillColor=none;fontFamily=Architects Daughter;fontSource=https%3A%2F%2Ffonts.googleapis.com%2Fcss%3Ffamily%3DArchitects%2BDaughter;" vertex="1" parent="1">
          <mxGeometry x="281.47" y="310" width="50" height="30" as="geometry" />
        </mxCell>
        <mxCell id="TbwZooSHutACKmplQoPR-18" value="&lt;font face=&quot;Helvetica&quot;&gt;nginx&lt;/font&gt;" style="text;html=1;align=center;verticalAlign=middle;resizable=0;points=[];autosize=1;strokeColor=none;fillColor=none;fontFamily=Architects Daughter;fontSource=https%3A%2F%2Ffonts.googleapis.com%2Fcss%3Ffamily%3DArchitects%2BDaughter;" vertex="1" parent="1">
          <mxGeometry x="528.54" y="310" width="50" height="30" as="geometry" />
        </mxCell>
        <mxCell id="TbwZooSHutACKmplQoPR-19" value="" style="rounded=0;whiteSpace=wrap;html=1;sketch=1;hachureGap=4;jiggle=2;curveFitting=1;fontFamily=Architects Daughter;fontSource=https%3A%2F%2Ffonts.googleapis.com%2Fcss%3Ffamily%3DArchitects%2BDaughter;" vertex="1" parent="1">
          <mxGeometry x="281.47" y="360" width="308.53" height="110" as="geometry" />
        </mxCell>
        <mxCell id="TbwZooSHutACKmplQoPR-20" value="网关" style="text;html=1;align=center;verticalAlign=middle;resizable=0;points=[];autosize=1;strokeColor=none;fillColor=none;fontFamily=Architects Daughter;fontSource=https%3A%2F%2Ffonts.googleapis.com%2Fcss%3Ffamily%3DArchitects%2BDaughter;" vertex="1" parent="1">
          <mxGeometry x="405" y="360" width="50" height="30" as="geometry" />
        </mxCell>
        <mxCell id="TbwZooSHutACKmplQoPR-21" value="" style="image;aspect=fixed;html=1;points=[];align=center;fontSize=12;image=img/lib/azure2/compute/Azure_Spring_Cloud.svg;sketch=1;hachureGap=4;jiggle=2;curveFitting=1;fontFamily=Architects Daughter;fontSource=https%3A%2F%2Ffonts.googleapis.com%2Fcss%3Ffamily%3DArchitects%2BDaughter;" vertex="1" parent="1">
          <mxGeometry x="290" y="390" width="55" height="55" as="geometry" />
        </mxCell>
        <mxCell id="TbwZooSHutACKmplQoPR-22" value="" style="image;aspect=fixed;html=1;points=[];align=center;fontSize=12;image=img/lib/azure2/compute/Azure_Spring_Cloud.svg;sketch=1;hachureGap=4;jiggle=2;curveFitting=1;fontFamily=Architects Daughter;fontSource=https%3A%2F%2Ffonts.googleapis.com%2Fcss%3Ffamily%3DArchitects%2BDaughter;" vertex="1" parent="1">
          <mxGeometry x="408.23999999999995" y="390" width="55" height="55" as="geometry" />
        </mxCell>
        <mxCell id="TbwZooSHutACKmplQoPR-23" value="" style="image;aspect=fixed;html=1;points=[];align=center;fontSize=12;image=img/lib/azure2/compute/Azure_Spring_Cloud.svg;sketch=1;hachureGap=4;jiggle=2;curveFitting=1;fontFamily=Architects Daughter;fontSource=https%3A%2F%2Ffonts.googleapis.com%2Fcss%3Ffamily%3DArchitects%2BDaughter;" vertex="1" parent="1">
          <mxGeometry x="526.04" y="387.5" width="55" height="55" as="geometry" />
        </mxCell>
        <mxCell id="TbwZooSHutACKmplQoPR-25" value="&lt;font face=&quot;Helvetica&quot;&gt;Gateway&lt;/font&gt;" style="text;html=1;align=center;verticalAlign=middle;resizable=0;points=[];autosize=1;strokeColor=none;fillColor=none;fontFamily=Architects Daughter;fontSource=https%3A%2F%2Ffonts.googleapis.com%2Fcss%3Ffamily%3DArchitects%2BDaughter;" vertex="1" parent="1">
          <mxGeometry x="280" y="440" width="70" height="30" as="geometry" />
        </mxCell>
        <mxCell id="TbwZooSHutACKmplQoPR-27" value="&lt;font face=&quot;Helvetica&quot;&gt;Gateway&lt;/font&gt;" style="text;html=1;align=center;verticalAlign=middle;resizable=0;points=[];autosize=1;strokeColor=none;fillColor=none;fontFamily=Architects Daughter;fontSource=https%3A%2F%2Ffonts.googleapis.com%2Fcss%3Ffamily%3DArchitects%2BDaughter;" vertex="1" parent="1">
          <mxGeometry x="400.73999999999995" y="440" width="70" height="30" as="geometry" />
        </mxCell>
        <mxCell id="TbwZooSHutACKmplQoPR-28" value="&lt;font face=&quot;Helvetica&quot;&gt;Gateway&lt;/font&gt;" style="text;html=1;align=center;verticalAlign=middle;resizable=0;points=[];autosize=1;strokeColor=none;fillColor=none;fontFamily=Architects Daughter;fontSource=https%3A%2F%2Ffonts.googleapis.com%2Fcss%3Ffamily%3DArchitects%2BDaughter;" vertex="1" parent="1">
          <mxGeometry x="520" y="440" width="70" height="30" as="geometry" />
        </mxCell>
        <mxCell id="TbwZooSHutACKmplQoPR-29" style="edgeStyle=orthogonalEdgeStyle;rounded=0;hachureGap=4;orthogonalLoop=1;jettySize=auto;html=1;exitX=0.5;exitY=1;exitDx=0;exitDy=0;entryX=0.519;entryY=0.04;entryDx=0;entryDy=0;entryPerimeter=0;fontFamily=Architects Daughter;fontSource=https%3A%2F%2Ffonts.googleapis.com%2Fcss%3Ffamily%3DArchitects%2BDaughter;flowAnimation=1;" edge="1" parent="1" source="TbwZooSHutACKmplQoPR-5" target="TbwZooSHutACKmplQoPR-11">
          <mxGeometry relative="1" as="geometry">
            <Array as="points">
              <mxPoint x="430" y="230" />
              <mxPoint x="431" y="230" />
            </Array>
          </mxGeometry>
        </mxCell>
        <mxCell id="TbwZooSHutACKmplQoPR-32" value="" style="endArrow=classic;html=1;rounded=0;hachureGap=4;fontFamily=Architects Daughter;fontSource=https%3A%2F%2Ffonts.googleapis.com%2Fcss%3Ffamily%3DArchitects%2BDaughter;exitX=0.489;exitY=-0.133;exitDx=0;exitDy=0;exitPerimeter=0;entryX=0.5;entryY=0.033;entryDx=0;entryDy=0;entryPerimeter=0;flowAnimation=1;" edge="1" parent="1" target="TbwZooSHutACKmplQoPR-20">
          <mxGeometry width="50" height="50" relative="1" as="geometry">
            <mxPoint x="427.97999999999956" y="306.01" as="sourcePoint" />
            <mxPoint x="470" y="540" as="targetPoint" />
          </mxGeometry>
        </mxCell>
        <mxCell id="TbwZooSHutACKmplQoPR-33" value="&lt;span style=&quot;font-family: Helvetica; font-size: 12px; background-color: rgb(251, 251, 251);&quot;&gt;nginx&lt;/span&gt;" style="edgeLabel;html=1;align=center;verticalAlign=middle;resizable=0;points=[];sketch=1;hachureGap=4;jiggle=2;curveFitting=1;fontFamily=Architects Daughter;fontSource=https%3A%2F%2Ffonts.googleapis.com%2Fcss%3Ffamily%3DArchitects%2BDaughter;" vertex="1" connectable="0" parent="TbwZooSHutACKmplQoPR-32">
          <mxGeometry x="-0.2724" relative="1" as="geometry">
            <mxPoint as="offset" />
          </mxGeometry>
        </mxCell>
        <mxCell id="TbwZooSHutACKmplQoPR-34" value="" style="rounded=0;whiteSpace=wrap;html=1;sketch=1;hachureGap=4;jiggle=2;curveFitting=1;fontFamily=Architects Daughter;fontSource=https%3A%2F%2Ffonts.googleapis.com%2Fcss%3Ffamily%3DArchitects%2BDaughter;" vertex="1" parent="1">
          <mxGeometry x="100" y="400" width="140" height="90" as="geometry" />
        </mxCell>
        <mxCell id="TbwZooSHutACKmplQoPR-35" value="" style="rounded=0;whiteSpace=wrap;html=1;sketch=1;hachureGap=4;jiggle=2;curveFitting=1;fontFamily=Architects Daughter;fontSource=https%3A%2F%2Ffonts.googleapis.com%2Fcss%3Ffamily%3DArchitects%2BDaughter;" vertex="1" parent="1">
          <mxGeometry x="630" y="350" width="120" height="190" as="geometry" />
        </mxCell>
        <mxCell id="TbwZooSHutACKmplQoPR-36" value="" style="sketch=0;points=[[0,0,0],[0.25,0,0],[0.5,0,0],[0.75,0,0],[1,0,0],[0,1,0],[0.25,1,0],[0.5,1,0],[0.75,1,0],[1,1,0],[0,0.25,0],[0,0.5,0],[0,0.75,0],[1,0.25,0],[1,0.5,0],[1,0.75,0]];outlineConnect=0;fontColor=#232F3E;fillColor=#ED7100;strokeColor=#ffffff;dashed=0;verticalLabelPosition=bottom;verticalAlign=top;align=center;html=1;fontSize=12;fontStyle=0;aspect=fixed;shape=mxgraph.aws4.resourceIcon;resIcon=mxgraph.aws4.nice_dcv;hachureGap=4;jiggle=2;curveFitting=1;fontFamily=Architects Daughter;fontSource=https%3A%2F%2Ffonts.googleapis.com%2Fcss%3Ffamily%3DArchitects%2BDaughter;" vertex="1" parent="1">
          <mxGeometry x="670" y="400" width="40" height="40" as="geometry" />
        </mxCell>
        <mxCell id="TbwZooSHutACKmplQoPR-37" value="" style="sketch=0;points=[[0,0,0],[0.25,0,0],[0.5,0,0],[0.75,0,0],[1,0,0],[0,1,0],[0.25,1,0],[0.5,1,0],[0.75,1,0],[1,1,0],[0,0.25,0],[0,0.5,0],[0,0.75,0],[1,0.25,0],[1,0.5,0],[1,0.75,0]];outlineConnect=0;fontColor=#232F3E;fillColor=#ED7100;strokeColor=#ffffff;dashed=0;verticalLabelPosition=bottom;verticalAlign=top;align=center;html=1;fontSize=12;fontStyle=0;aspect=fixed;shape=mxgraph.aws4.resourceIcon;resIcon=mxgraph.aws4.nice_dcv;hachureGap=4;jiggle=2;curveFitting=1;fontFamily=Architects Daughter;fontSource=https%3A%2F%2Ffonts.googleapis.com%2Fcss%3Ffamily%3DArchitects%2BDaughter;" vertex="1" parent="1">
          <mxGeometry x="640" y="490" width="40" height="40" as="geometry" />
        </mxCell>
        <mxCell id="TbwZooSHutACKmplQoPR-38" value="" style="sketch=0;points=[[0,0,0],[0.25,0,0],[0.5,0,0],[0.75,0,0],[1,0,0],[0,1,0],[0.25,1,0],[0.5,1,0],[0.75,1,0],[1,1,0],[0,0.25,0],[0,0.5,0],[0,0.75,0],[1,0.25,0],[1,0.5,0],[1,0.75,0]];outlineConnect=0;fontColor=#232F3E;fillColor=#ED7100;strokeColor=#ffffff;dashed=0;verticalLabelPosition=bottom;verticalAlign=top;align=center;html=1;fontSize=12;fontStyle=0;aspect=fixed;shape=mxgraph.aws4.resourceIcon;resIcon=mxgraph.aws4.nice_dcv;hachureGap=4;jiggle=2;curveFitting=1;fontFamily=Architects Daughter;fontSource=https%3A%2F%2Ffonts.googleapis.com%2Fcss%3Ffamily%3DArchitects%2BDaughter;" vertex="1" parent="1">
          <mxGeometry x="700" y="490" width="40" height="40" as="geometry" />
        </mxCell>
        <mxCell id="TbwZooSHutACKmplQoPR-39" value="" style="endArrow=classic;startArrow=classic;html=1;rounded=0;sketch=1;hachureGap=4;jiggle=2;curveFitting=1;fontFamily=Architects Daughter;fontSource=https%3A%2F%2Ffonts.googleapis.com%2Fcss%3Ffamily%3DArchitects%2BDaughter;entryX=0;entryY=0.5;entryDx=0;entryDy=0;entryPerimeter=0;exitX=1;exitY=0.5;exitDx=0;exitDy=0;exitPerimeter=0;" edge="1" parent="1" source="TbwZooSHutACKmplQoPR-37" target="TbwZooSHutACKmplQoPR-38">
          <mxGeometry width="50" height="50" relative="1" as="geometry">
            <mxPoint x="600" y="630" as="sourcePoint" />
            <mxPoint x="650" y="580" as="targetPoint" />
          </mxGeometry>
        </mxCell>
        <mxCell id="TbwZooSHutACKmplQoPR-42" value="" style="endArrow=classic;startArrow=classic;html=1;rounded=0;sketch=1;hachureGap=4;jiggle=2;curveFitting=1;fontFamily=Architects Daughter;fontSource=https%3A%2F%2Ffonts.googleapis.com%2Fcss%3Ffamily%3DArchitects%2BDaughter;entryX=0;entryY=1;entryDx=0;entryDy=0;entryPerimeter=0;exitX=0.25;exitY=0;exitDx=0;exitDy=0;exitPerimeter=0;" edge="1" parent="1" source="TbwZooSHutACKmplQoPR-37" target="TbwZooSHutACKmplQoPR-36">
          <mxGeometry width="50" height="50" relative="1" as="geometry">
            <mxPoint x="390" y="560" as="sourcePoint" />
            <mxPoint x="440" y="510" as="targetPoint" />
          </mxGeometry>
        </mxCell>
        <mxCell id="TbwZooSHutACKmplQoPR-43" value="" style="endArrow=classic;startArrow=classic;html=1;rounded=0;sketch=1;hachureGap=4;jiggle=2;curveFitting=1;fontFamily=Architects Daughter;fontSource=https%3A%2F%2Ffonts.googleapis.com%2Fcss%3Ffamily%3DArchitects%2BDaughter;entryX=1;entryY=1;entryDx=0;entryDy=0;entryPerimeter=0;exitX=0.75;exitY=0;exitDx=0;exitDy=0;exitPerimeter=0;" edge="1" parent="1" source="TbwZooSHutACKmplQoPR-38" target="TbwZooSHutACKmplQoPR-36">
          <mxGeometry width="50" height="50" relative="1" as="geometry">
            <mxPoint x="660" y="500" as="sourcePoint" />
            <mxPoint x="680" y="450" as="targetPoint" />
          </mxGeometry>
        </mxCell>
        <mxCell id="TbwZooSHutACKmplQoPR-44" value="&lt;font face=&quot;Helvetica&quot;&gt;Nacos注册中心&lt;/font&gt;" style="text;html=1;align=center;verticalAlign=middle;resizable=0;points=[];autosize=1;strokeColor=none;fillColor=none;fontFamily=Architects Daughter;fontSource=https%3A%2F%2Ffonts.googleapis.com%2Fcss%3Ffamily%3DArchitects%2BDaughter;" vertex="1" parent="1">
          <mxGeometry x="635" y="357.5" width="110" height="30" as="geometry" />
        </mxCell>
        <mxCell id="TbwZooSHutACKmplQoPR-52" value="" style="rounded=0;whiteSpace=wrap;html=1;sketch=1;hachureGap=4;jiggle=2;curveFitting=1;fontFamily=Architects Daughter;fontSource=https%3A%2F%2Ffonts.googleapis.com%2Fcss%3Ffamily%3DArchitects%2BDaughter;" vertex="1" parent="1">
          <mxGeometry x="630" y="610" width="120" height="190" as="geometry" />
        </mxCell>
        <mxCell id="TbwZooSHutACKmplQoPR-53" value="" style="sketch=0;points=[[0,0,0],[0.25,0,0],[0.5,0,0],[0.75,0,0],[1,0,0],[0,1,0],[0.25,1,0],[0.5,1,0],[0.75,1,0],[1,1,0],[0,0.25,0],[0,0.5,0],[0,0.75,0],[1,0.25,0],[1,0.5,0],[1,0.75,0]];outlineConnect=0;fontColor=#232F3E;fillColor=#ED7100;strokeColor=#ffffff;dashed=0;verticalLabelPosition=bottom;verticalAlign=top;align=center;html=1;fontSize=12;fontStyle=0;aspect=fixed;shape=mxgraph.aws4.resourceIcon;resIcon=mxgraph.aws4.nice_dcv;hachureGap=4;jiggle=2;curveFitting=1;fontFamily=Architects Daughter;fontSource=https%3A%2F%2Ffonts.googleapis.com%2Fcss%3Ffamily%3DArchitects%2BDaughter;" vertex="1" parent="1">
          <mxGeometry x="670" y="660" width="40" height="40" as="geometry" />
        </mxCell>
        <mxCell id="TbwZooSHutACKmplQoPR-54" value="" style="sketch=0;points=[[0,0,0],[0.25,0,0],[0.5,0,0],[0.75,0,0],[1,0,0],[0,1,0],[0.25,1,0],[0.5,1,0],[0.75,1,0],[1,1,0],[0,0.25,0],[0,0.5,0],[0,0.75,0],[1,0.25,0],[1,0.5,0],[1,0.75,0]];outlineConnect=0;fontColor=#232F3E;fillColor=#ED7100;strokeColor=#ffffff;dashed=0;verticalLabelPosition=bottom;verticalAlign=top;align=center;html=1;fontSize=12;fontStyle=0;aspect=fixed;shape=mxgraph.aws4.resourceIcon;resIcon=mxgraph.aws4.nice_dcv;hachureGap=4;jiggle=2;curveFitting=1;fontFamily=Architects Daughter;fontSource=https%3A%2F%2Ffonts.googleapis.com%2Fcss%3Ffamily%3DArchitects%2BDaughter;" vertex="1" parent="1">
          <mxGeometry x="640" y="750" width="40" height="40" as="geometry" />
        </mxCell>
        <mxCell id="TbwZooSHutACKmplQoPR-55" value="" style="sketch=0;points=[[0,0,0],[0.25,0,0],[0.5,0,0],[0.75,0,0],[1,0,0],[0,1,0],[0.25,1,0],[0.5,1,0],[0.75,1,0],[1,1,0],[0,0.25,0],[0,0.5,0],[0,0.75,0],[1,0.25,0],[1,0.5,0],[1,0.75,0]];outlineConnect=0;fontColor=#232F3E;fillColor=#ED7100;strokeColor=#ffffff;dashed=0;verticalLabelPosition=bottom;verticalAlign=top;align=center;html=1;fontSize=12;fontStyle=0;aspect=fixed;shape=mxgraph.aws4.resourceIcon;resIcon=mxgraph.aws4.nice_dcv;hachureGap=4;jiggle=2;curveFitting=1;fontFamily=Architects Daughter;fontSource=https%3A%2F%2Ffonts.googleapis.com%2Fcss%3Ffamily%3DArchitects%2BDaughter;" vertex="1" parent="1">
          <mxGeometry x="700" y="750" width="40" height="40" as="geometry" />
        </mxCell>
        <mxCell id="TbwZooSHutACKmplQoPR-56" value="" style="endArrow=classic;startArrow=classic;html=1;rounded=0;sketch=1;hachureGap=4;jiggle=2;curveFitting=1;fontFamily=Architects Daughter;fontSource=https%3A%2F%2Ffonts.googleapis.com%2Fcss%3Ffamily%3DArchitects%2BDaughter;entryX=0;entryY=0.5;entryDx=0;entryDy=0;entryPerimeter=0;exitX=1;exitY=0.5;exitDx=0;exitDy=0;exitPerimeter=0;" edge="1" parent="1" source="TbwZooSHutACKmplQoPR-54" target="TbwZooSHutACKmplQoPR-55">
          <mxGeometry width="50" height="50" relative="1" as="geometry">
            <mxPoint x="600" y="890" as="sourcePoint" />
            <mxPoint x="650" y="840" as="targetPoint" />
          </mxGeometry>
        </mxCell>
        <mxCell id="TbwZooSHutACKmplQoPR-57" value="" style="endArrow=classic;startArrow=classic;html=1;rounded=0;sketch=1;hachureGap=4;jiggle=2;curveFitting=1;fontFamily=Architects Daughter;fontSource=https%3A%2F%2Ffonts.googleapis.com%2Fcss%3Ffamily%3DArchitects%2BDaughter;entryX=0;entryY=1;entryDx=0;entryDy=0;entryPerimeter=0;exitX=0.25;exitY=0;exitDx=0;exitDy=0;exitPerimeter=0;" edge="1" parent="1" source="TbwZooSHutACKmplQoPR-54" target="TbwZooSHutACKmplQoPR-53">
          <mxGeometry width="50" height="50" relative="1" as="geometry">
            <mxPoint x="390" y="820" as="sourcePoint" />
            <mxPoint x="440" y="770" as="targetPoint" />
          </mxGeometry>
        </mxCell>
        <mxCell id="TbwZooSHutACKmplQoPR-58" value="" style="endArrow=classic;startArrow=classic;html=1;rounded=0;sketch=1;hachureGap=4;jiggle=2;curveFitting=1;fontFamily=Architects Daughter;fontSource=https%3A%2F%2Ffonts.googleapis.com%2Fcss%3Ffamily%3DArchitects%2BDaughter;entryX=1;entryY=1;entryDx=0;entryDy=0;entryPerimeter=0;exitX=0.75;exitY=0;exitDx=0;exitDy=0;exitPerimeter=0;" edge="1" parent="1" source="TbwZooSHutACKmplQoPR-55" target="TbwZooSHutACKmplQoPR-53">
          <mxGeometry width="50" height="50" relative="1" as="geometry">
            <mxPoint x="660" y="760" as="sourcePoint" />
            <mxPoint x="680" y="710" as="targetPoint" />
          </mxGeometry>
        </mxCell>
        <mxCell id="TbwZooSHutACKmplQoPR-59" value="&lt;font face=&quot;Helvetica&quot;&gt;Nacos配置中心&lt;/font&gt;" style="text;html=1;align=center;verticalAlign=middle;resizable=0;points=[];autosize=1;strokeColor=none;fillColor=none;fontFamily=Architects Daughter;fontSource=https%3A%2F%2Ffonts.googleapis.com%2Fcss%3Ffamily%3DArchitects%2BDaughter;" vertex="1" parent="1">
          <mxGeometry x="635" y="617.5" width="110" height="30" as="geometry" />
        </mxCell>
        <mxCell id="TbwZooSHutACKmplQoPR-60" value="" style="endArrow=classic;startArrow=classic;html=1;rounded=0;sketch=1;hachureGap=4;jiggle=2;curveFitting=1;fontFamily=Architects Daughter;fontSource=https%3A%2F%2Ffonts.googleapis.com%2Fcss%3Ffamily%3DArchitects%2BDaughter;entryX=0.5;entryY=1;entryDx=0;entryDy=0;exitX=0.5;exitY=0;exitDx=0;exitDy=0;" edge="1" parent="1" source="TbwZooSHutACKmplQoPR-52" target="TbwZooSHutACKmplQoPR-35">
          <mxGeometry width="50" height="50" relative="1" as="geometry">
            <mxPoint x="660" y="500" as="sourcePoint" />
            <mxPoint x="680" y="450" as="targetPoint" />
          </mxGeometry>
        </mxCell>
        <mxCell id="TbwZooSHutACKmplQoPR-61" value="" style="rounded=0;whiteSpace=wrap;html=1;sketch=1;hachureGap=4;jiggle=2;curveFitting=1;fontFamily=Architects Daughter;fontSource=https%3A%2F%2Ffonts.googleapis.com%2Fcss%3Ffamily%3DArchitects%2BDaughter;" vertex="1" parent="1">
          <mxGeometry x="630" y="830" width="120" height="200" as="geometry" />
        </mxCell>
        <mxCell id="TbwZooSHutACKmplQoPR-62" value="" style="points=[];aspect=fixed;html=1;align=center;shadow=0;dashed=0;fillColor=#FF6A00;strokeColor=none;shape=mxgraph.alibaba_cloud.elasticsearch;hachureGap=4;fontFamily=Architects Daughter;fontSource=https%3A%2F%2Ffonts.googleapis.com%2Fcss%3Ffamily%3DArchitects%2BDaughter;" vertex="1" parent="1">
          <mxGeometry x="680" y="870" width="27.49" height="30" as="geometry" />
        </mxCell>
        <mxCell id="TbwZooSHutACKmplQoPR-63" value="ELK" style="text;html=1;align=center;verticalAlign=middle;resizable=0;points=[];autosize=1;strokeColor=none;fillColor=none;fontFamily=Architects Daughter;fontSource=https%3A%2F%2Ffonts.googleapis.com%2Fcss%3Ffamily%3DArchitects%2BDaughter;" vertex="1" parent="1">
          <mxGeometry x="670" y="840" width="50" height="30" as="geometry" />
        </mxCell>
        <mxCell id="TbwZooSHutACKmplQoPR-64" value="" style="points=[];aspect=fixed;html=1;align=center;shadow=0;dashed=0;fillColor=#FF6A00;strokeColor=none;shape=mxgraph.alibaba_cloud.log_streaming;hachureGap=4;fontFamily=Architects Daughter;fontSource=https%3A%2F%2Ffonts.googleapis.com%2Fcss%3Ffamily%3DArchitects%2BDaughter;" vertex="1" parent="1">
          <mxGeometry x="679.3" y="920" width="31.39" height="30" as="geometry" />
        </mxCell>
        <mxCell id="TbwZooSHutACKmplQoPR-65" value="" style="verticalLabelPosition=bottom;verticalAlign=top;html=1;shape=mxgraph.basic.wave2;dy=0.3;hachureGap=4;fontFamily=Architects Daughter;fontSource=https%3A%2F%2Ffonts.googleapis.com%2Fcss%3Ffamily%3DArchitects%2BDaughter;" vertex="1" parent="1">
          <mxGeometry x="675" y="980" width="40" height="20" as="geometry" />
        </mxCell>
        <mxCell id="TbwZooSHutACKmplQoPR-66" value="elasticsearch" style="text;html=1;align=center;verticalAlign=middle;resizable=0;points=[];autosize=1;strokeColor=none;fillColor=none;fontFamily=Architects Daughter;fontSource=https%3A%2F%2Ffonts.googleapis.com%2Fcss%3Ffamily%3DArchitects%2BDaughter;" vertex="1" parent="1">
          <mxGeometry x="650" y="890" width="100" height="30" as="geometry" />
        </mxCell>
        <mxCell id="TbwZooSHutACKmplQoPR-67" value="logstash" style="text;html=1;align=center;verticalAlign=middle;resizable=0;points=[];autosize=1;strokeColor=none;fillColor=none;fontFamily=Architects Daughter;fontSource=https%3A%2F%2Ffonts.googleapis.com%2Fcss%3Ffamily%3DArchitects%2BDaughter;" vertex="1" parent="1">
          <mxGeometry x="660" y="940" width="70" height="30" as="geometry" />
        </mxCell>
        <mxCell id="TbwZooSHutACKmplQoPR-68" value="kibana" style="text;html=1;align=center;verticalAlign=middle;resizable=0;points=[];autosize=1;strokeColor=none;fillColor=none;fontFamily=Architects Daughter;fontSource=https%3A%2F%2Ffonts.googleapis.com%2Fcss%3Ffamily%3DArchitects%2BDaughter;" vertex="1" parent="1">
          <mxGeometry x="665" y="990" width="60" height="30" as="geometry" />
        </mxCell>
        <mxCell id="TbwZooSHutACKmplQoPR-69" value="" style="rounded=0;whiteSpace=wrap;html=1;sketch=1;hachureGap=4;jiggle=2;curveFitting=1;fontFamily=Architects Daughter;fontSource=https%3A%2F%2Ffonts.googleapis.com%2Fcss%3Ffamily%3DArchitects%2BDaughter;" vertex="1" parent="1">
          <mxGeometry x="280" y="520" width="310" height="360" as="geometry" />
        </mxCell>
        <mxCell id="TbwZooSHutACKmplQoPR-70" value="" style="image;sketch=0;aspect=fixed;html=1;points=[];align=center;fontSize=12;image=img/lib/mscae/Cache_Redis_Product.svg;hachureGap=4;jiggle=2;curveFitting=1;fontFamily=Architects Daughter;fontSource=https%3A%2F%2Ffonts.googleapis.com%2Fcss%3Ffamily%3DArchitects%2BDaughter;" vertex="1" parent="1">
          <mxGeometry x="100" y="436" width="45.24" height="38" as="geometry" />
        </mxCell>
        <mxCell id="TbwZooSHutACKmplQoPR-71" value="" style="image;sketch=0;aspect=fixed;html=1;points=[];align=center;fontSize=12;image=img/lib/mscae/Cache_Redis_Product.svg;hachureGap=4;jiggle=2;curveFitting=1;fontFamily=Architects Daughter;fontSource=https%3A%2F%2Ffonts.googleapis.com%2Fcss%3Ffamily%3DArchitects%2BDaughter;" vertex="1" parent="1">
          <mxGeometry x="147.38" y="436" width="45.24" height="38" as="geometry" />
        </mxCell>
        <mxCell id="TbwZooSHutACKmplQoPR-72" value="" style="image;sketch=0;aspect=fixed;html=1;points=[];align=center;fontSize=12;image=img/lib/mscae/Cache_Redis_Product.svg;hachureGap=4;jiggle=2;curveFitting=1;fontFamily=Architects Daughter;fontSource=https%3A%2F%2Ffonts.googleapis.com%2Fcss%3Ffamily%3DArchitects%2BDaughter;" vertex="1" parent="1">
          <mxGeometry x="194.76" y="436" width="45.24" height="38" as="geometry" />
        </mxCell>
        <mxCell id="TbwZooSHutACKmplQoPR-73" value="&lt;font face=&quot;Helvetica&quot;&gt;Redis集群&lt;/font&gt;" style="text;html=1;align=center;verticalAlign=middle;resizable=0;points=[];autosize=1;strokeColor=none;fillColor=none;fontFamily=Architects Daughter;fontSource=https%3A%2F%2Ffonts.googleapis.com%2Fcss%3Ffamily%3DArchitects%2BDaughter;" vertex="1" parent="1">
          <mxGeometry x="130" y="400" width="80" height="30" as="geometry" />
        </mxCell>
        <mxCell id="TbwZooSHutACKmplQoPR-74" value="" style="rounded=0;whiteSpace=wrap;html=1;sketch=1;hachureGap=4;jiggle=2;curveFitting=1;fontFamily=Architects Daughter;fontSource=https%3A%2F%2Ffonts.googleapis.com%2Fcss%3Ffamily%3DArchitects%2BDaughter;" vertex="1" parent="1">
          <mxGeometry x="100" y="558" width="140" height="82" as="geometry" />
        </mxCell>
        <mxCell id="TbwZooSHutACKmplQoPR-75" value="&lt;font face=&quot;Helvetica&quot;&gt;MySQL集群&lt;/font&gt;" style="text;html=1;align=center;verticalAlign=middle;resizable=0;points=[];autosize=1;strokeColor=none;fillColor=none;fontFamily=Architects Daughter;fontSource=https%3A%2F%2Ffonts.googleapis.com%2Fcss%3Ffamily%3DArchitects%2BDaughter;" vertex="1" parent="1">
          <mxGeometry x="125" y="558" width="90" height="30" as="geometry" />
        </mxCell>
        <mxCell id="TbwZooSHutACKmplQoPR-76" value="" style="image;aspect=fixed;html=1;points=[];align=center;fontSize=12;image=img/lib/azure2/databases/SQL_Database.svg;sketch=1;hachureGap=4;jiggle=2;curveFitting=1;fontFamily=Architects Daughter;fontSource=https%3A%2F%2Ffonts.googleapis.com%2Fcss%3Ffamily%3DArchitects%2BDaughter;" vertex="1" parent="1">
          <mxGeometry x="100" y="588" width="31.5" height="42" as="geometry" />
        </mxCell>
        <mxCell id="TbwZooSHutACKmplQoPR-77" value="" style="image;aspect=fixed;html=1;points=[];align=center;fontSize=12;image=img/lib/azure2/databases/SQL_Database.svg;sketch=1;hachureGap=4;jiggle=2;curveFitting=1;fontFamily=Architects Daughter;fontSource=https%3A%2F%2Ffonts.googleapis.com%2Fcss%3Ffamily%3DArchitects%2BDaughter;" vertex="1" parent="1">
          <mxGeometry x="208.5" y="588" width="31.5" height="42" as="geometry" />
        </mxCell>
        <mxCell id="TbwZooSHutACKmplQoPR-78" value="" style="image;aspect=fixed;html=1;points=[];align=center;fontSize=12;image=img/lib/azure2/databases/SQL_Database.svg;sketch=1;hachureGap=4;jiggle=2;curveFitting=1;fontFamily=Architects Daughter;fontSource=https%3A%2F%2Ffonts.googleapis.com%2Fcss%3Ffamily%3DArchitects%2BDaughter;" vertex="1" parent="1">
          <mxGeometry x="154.25" y="588" width="31.5" height="42" as="geometry" />
        </mxCell>
        <mxCell id="TbwZooSHutACKmplQoPR-80" value="" style="rounded=0;whiteSpace=wrap;html=1;sketch=1;hachureGap=4;jiggle=2;curveFitting=1;fontFamily=Architects Daughter;fontSource=https%3A%2F%2Ffonts.googleapis.com%2Fcss%3Ffamily%3DArchitects%2BDaughter;" vertex="1" parent="1">
          <mxGeometry x="100" y="690" width="140" height="80" as="geometry" />
        </mxCell>
        <mxCell id="TbwZooSHutACKmplQoPR-81" value="" style="points=[];aspect=fixed;html=1;align=center;shadow=0;dashed=0;fillColor=#FF6A00;strokeColor=none;shape=mxgraph.alibaba_cloud.kafka;hachureGap=4;fontFamily=Architects Daughter;fontSource=https%3A%2F%2Ffonts.googleapis.com%2Fcss%3Ffamily%3DArchitects%2BDaughter;" vertex="1" parent="1">
          <mxGeometry x="102.37" y="720" width="40.5" height="30" as="geometry" />
        </mxCell>
        <mxCell id="TbwZooSHutACKmplQoPR-82" value="" style="points=[];aspect=fixed;html=1;align=center;shadow=0;dashed=0;fillColor=#FF6A00;strokeColor=none;shape=mxgraph.alibaba_cloud.kafka;hachureGap=4;fontFamily=Architects Daughter;fontSource=https%3A%2F%2Ffonts.googleapis.com%2Fcss%3Ffamily%3DArchitects%2BDaughter;" vertex="1" parent="1">
          <mxGeometry x="197.13" y="720" width="40.5" height="30" as="geometry" />
        </mxCell>
        <mxCell id="TbwZooSHutACKmplQoPR-83" value="" style="points=[];aspect=fixed;html=1;align=center;shadow=0;dashed=0;fillColor=#FF6A00;strokeColor=none;shape=mxgraph.alibaba_cloud.kafka;hachureGap=4;fontFamily=Architects Daughter;fontSource=https%3A%2F%2Ffonts.googleapis.com%2Fcss%3Ffamily%3DArchitects%2BDaughter;" vertex="1" parent="1">
          <mxGeometry x="149.75" y="720" width="40.5" height="30" as="geometry" />
        </mxCell>
        <mxCell id="TbwZooSHutACKmplQoPR-84" value="&lt;font face=&quot;Helvetica&quot;&gt;KafkaMQ集群&lt;/font&gt;" style="text;html=1;align=center;verticalAlign=middle;resizable=0;points=[];autosize=1;strokeColor=none;fillColor=none;fontFamily=Architects Daughter;fontSource=https%3A%2F%2Ffonts.googleapis.com%2Fcss%3Ffamily%3DArchitects%2BDaughter;" vertex="1" parent="1">
          <mxGeometry x="120" y="690" width="100" height="30" as="geometry" />
        </mxCell>
        <mxCell id="TbwZooSHutACKmplQoPR-86" value="" style="whiteSpace=wrap;html=1;sketch=1;hachureGap=4;jiggle=2;curveFitting=1;fontFamily=Architects Daughter;fontSource=https%3A%2F%2Ffonts.googleapis.com%2Fcss%3Ffamily%3DArchitects%2BDaughter;" vertex="1" parent="1">
          <mxGeometry x="100" y="840" width="140" height="80" as="geometry" />
        </mxCell>
        <mxCell id="TbwZooSHutACKmplQoPR-87" value="" style="points=[];aspect=fixed;html=1;align=center;shadow=0;dashed=0;fillColor=#FF6A00;strokeColor=none;shape=mxgraph.alibaba_cloud.elasticsearch;hachureGap=4;fontFamily=Architects Daughter;fontSource=https%3A%2F%2Ffonts.googleapis.com%2Fcss%3Ffamily%3DArchitects%2BDaughter;" vertex="1" parent="1">
          <mxGeometry x="104.00999999999999" y="880" width="27.49" height="30" as="geometry" />
        </mxCell>
        <mxCell id="TbwZooSHutACKmplQoPR-88" value="" style="points=[];aspect=fixed;html=1;align=center;shadow=0;dashed=0;fillColor=#FF6A00;strokeColor=none;shape=mxgraph.alibaba_cloud.elasticsearch;hachureGap=4;fontFamily=Architects Daughter;fontSource=https%3A%2F%2Ffonts.googleapis.com%2Fcss%3Ffamily%3DArchitects%2BDaughter;" vertex="1" parent="1">
          <mxGeometry x="203.64" y="880" width="27.49" height="30" as="geometry" />
        </mxCell>
        <mxCell id="TbwZooSHutACKmplQoPR-89" value="" style="points=[];aspect=fixed;html=1;align=center;shadow=0;dashed=0;fillColor=#FF6A00;strokeColor=none;shape=mxgraph.alibaba_cloud.elasticsearch;hachureGap=4;fontFamily=Architects Daughter;fontSource=https%3A%2F%2Ffonts.googleapis.com%2Fcss%3Ffamily%3DArchitects%2BDaughter;" vertex="1" parent="1">
          <mxGeometry x="156.26" y="880" width="27.49" height="30" as="geometry" />
        </mxCell>
        <mxCell id="TbwZooSHutACKmplQoPR-91" value="&lt;font face=&quot;Helvetica&quot;&gt;elasticsearch集群&lt;/font&gt;" style="text;html=1;align=center;verticalAlign=middle;resizable=0;points=[];autosize=1;strokeColor=none;fillColor=none;fontFamily=Architects Daughter;fontSource=https%3A%2F%2Ffonts.googleapis.com%2Fcss%3Ffamily%3DArchitects%2BDaughter;" vertex="1" parent="1">
          <mxGeometry x="111.13" y="840" width="120" height="30" as="geometry" />
        </mxCell>
        <mxCell id="TbwZooSHutACKmplQoPR-93" value="" style="rounded=1;whiteSpace=wrap;html=1;sketch=1;hachureGap=4;jiggle=2;curveFitting=1;fontFamily=Architects Daughter;fontSource=https%3A%2F%2Ffonts.googleapis.com%2Fcss%3Ffamily%3DArchitects%2BDaughter;" vertex="1" parent="1">
          <mxGeometry x="300" y="540" width="270" height="90" as="geometry" />
        </mxCell>
        <mxCell id="TbwZooSHutACKmplQoPR-94" value="" style="image;aspect=fixed;html=1;points=[];align=center;fontSize=12;image=img/lib/azure2/other/AzureAttestation.svg;sketch=1;hachureGap=4;jiggle=2;curveFitting=1;fontFamily=Architects Daughter;fontSource=https%3A%2F%2Ffonts.googleapis.com%2Fcss%3Ffamily%3DArchitects%2BDaughter;" vertex="1" parent="1">
          <mxGeometry x="332.93" y="552" width="47.76" height="58" as="geometry" />
        </mxCell>
        <mxCell id="TbwZooSHutACKmplQoPR-95" value="" style="shape=image;html=1;verticalAlign=top;verticalLabelPosition=bottom;labelBackgroundColor=#ffffff;imageAspect=0;aspect=fixed;image=https://cdn4.iconfinder.com/data/icons/ionicons/512/icon-ios7-world-128.png;sketch=1;hachureGap=4;jiggle=2;curveFitting=1;fontFamily=Architects Daughter;fontSource=https%3A%2F%2Ffonts.googleapis.com%2Fcss%3Ffamily%3DArchitects%2BDaughter;" vertex="1" parent="1">
          <mxGeometry x="480" y="552" width="60" height="60" as="geometry" />
        </mxCell>
        <mxCell id="TbwZooSHutACKmplQoPR-96" value="&lt;font face=&quot;Helvetica&quot;&gt;Spring Security&lt;/font&gt;" style="text;html=1;align=center;verticalAlign=middle;resizable=0;points=[];autosize=1;strokeColor=none;fillColor=none;fontFamily=Architects Daughter;fontSource=https%3A%2F%2Ffonts.googleapis.com%2Fcss%3Ffamily%3DArchitects%2BDaughter;" vertex="1" parent="1">
          <mxGeometry x="308.24" y="600" width="100" height="30" as="geometry" />
        </mxCell>
        <mxCell id="TbwZooSHutACKmplQoPR-97" value="&lt;font face=&quot;Helvetica&quot;&gt;OAuth2.0 认证&lt;/font&gt;" style="text;html=1;align=center;verticalAlign=middle;resizable=0;points=[];autosize=1;strokeColor=none;fillColor=none;fontFamily=Architects Daughter;fontSource=https%3A%2F%2Ffonts.googleapis.com%2Fcss%3Ffamily%3DArchitects%2BDaughter;" vertex="1" parent="1">
          <mxGeometry x="460" y="600" width="100" height="30" as="geometry" />
        </mxCell>
        <mxCell id="TbwZooSHutACKmplQoPR-99" value="" style="points=[];aspect=fixed;html=1;align=center;shadow=0;dashed=0;fillColor=#FF6A00;strokeColor=none;shape=mxgraph.alibaba_cloud.ahas_application_high_availability_service;hachureGap=4;fontFamily=Architects Daughter;fontSource=https%3A%2F%2Ffonts.googleapis.com%2Fcss%3Ffamily%3DArchitects%2BDaughter;" vertex="1" parent="1">
          <mxGeometry x="298.5" y="716.3" width="46.5" height="53.7" as="geometry" />
        </mxCell>
      </root>
    </mxGraphModel>
  </diagram>
</mxfile>
